<svg xmlns="http://www.w3.org/2000/svg" width="28" height="22" viewBox="0 0 28 22">
    <path fill="#77838F" d="M4.9 8.25c0-.57-.47-1.031-1.05-1.031h-2.8C.47 7.219 0 7.68 0 8.25c0 .57.47 1.031 1.05 1.031h2.8c.58 0 1.05-.461 1.05-1.031zM2.26 2.784l2.425 1.375c.325.192.73.197 1.06.012.33-.184.534-.53.531-.902-.002-.373-.209-.716-.541-.896L3.31.998C2.985.805 2.58.8 2.25.985c-.33.184-.534.53-.531.902.002.373.209.716.541.897zm20.531 1.513c.185 0 .366-.048.525-.138l2.425-1.375c.49-.29.654-.913.367-1.4-.286-.487-.916-.658-1.417-.386l-2.425 1.375c-.411.233-.612.709-.489 1.16.123.45.539.764 1.014.764zM14 22c1.546 0 2.8-1.231 2.8-2.75h-5.6c0 1.519 1.254 2.75 2.8 2.75zM26.95 7.219h-2.8c-.58 0-1.05.461-1.05 1.031 0 .57.47 1.031 1.05 1.031h2.8c.58 0 1.05-.461 1.05-1.031 0-.57-.47-1.031-1.05-1.031zm-5.953 1.718c0-3.338-2.384-6.011-5.598-6.667v-.895C15.4.615 14.772 0 14 0c-.773 0-1.4.616-1.4 1.375v.895c-3.212.656-5.596 3.33-5.596 6.668 0 4.396-1.58 5.737-2.426 6.629-.244.251-.379.586-.377.933.005.705.569 1.375 1.404 1.375h16.792c.836 0 1.4-.67 1.404-1.375.002-.347-.133-.682-.377-.933-.845-.892-2.426-2.233-2.426-6.63z"/>
</svg>
