<svg xmlns="http://www.w3.org/2000/svg" width="19" height="22" viewBox="0 0 19 22">
    <path fill="#77838F" d="M6.277 12.375H4.58c-.28 0-.509-.232-.509-.516v-1.718c0-.284.23-.516.51-.516h1.696c.28 0 .509.232.509.516v1.718c0 .284-.23.516-.51.516zm4.58-.516v-1.718c0-.284-.229-.516-.509-.516H8.652c-.28 0-.51.232-.51.516v1.718c0 .284.23.516.51.516h1.696c.28 0 .51-.232.51-.516zm4.072 0v-1.718c0-.284-.23-.516-.51-.516h-1.696c-.28 0-.509.232-.509.516v1.718c0 .284.23.516.51.516h1.696c.28 0 .509-.232.509-.516zm-4.072 4.125v-1.718c0-.284-.229-.516-.509-.516H8.652c-.28 0-.51.232-.51.516v1.718c0 .284.23.516.51.516h1.696c.28 0 .51-.232.51-.516zm-4.071 0v-1.718c0-.284-.23-.516-.51-.516H4.58c-.28 0-.509.232-.509.516v1.718c0 .284.23.516.51.516h1.696c.28 0 .509-.232.509-.516zm8.143 0v-1.718c0-.284-.23-.516-.51-.516h-1.696c-.28 0-.509.232-.509.516v1.718c0 .284.23.516.51.516h1.696c.28 0 .509-.232.509-.516zM19 4.813v15.125C19 21.075 18.088 22 16.964 22H2.036C.912 22 0 21.076 0 19.937V4.813C0 3.675.912 2.75 2.036 2.75H4.07V.516c0-.284.23-.516.51-.516h1.696c.28 0 .509.232.509.516V2.75h5.428V.516c0-.284.23-.516.51-.516h1.696c.28 0 .509.232.509.516V2.75h2.035c1.124 0 2.036.924 2.036 2.063zM16.964 19.68V6.875H2.036V19.68c0 .141.114.258.254.258h14.42c.14 0 .254-.117.254-.258z"/>
</svg>
