<svg xmlns="http://www.w3.org/2000/svg" width="17" height="22" viewBox="0 0 17 22">
    <path fill="#FFF" d="M14.875 0C16.048 0 17 .924 17 2.063v17.875C17 21.075 16.048 22 14.875 22H2.125C.952 22 0 21.076 0 19.937V2.063C0 .925.952 0 2.125 0h12.75zm-4.423 17.27H3.4l-.114.007c-.447.054-.793.424-.793.873 0 .486.406.88.907.88h7.052l.114-.007c.447-.054.793-.424.793-.873 0-.486-.406-.88-.907-.88zm3.022-3.3H3.4l-.114.007c-.447.054-.793.424-.793.873 0 .486.406.88.907.88h10.074l.114-.007c.447-.054.793-.424.793-.873 0-.486-.406-.88-.907-.88zm-2.015-3.3H3.4l-.114.007c-.447.054-.793.424-.793.873 0 .486.406.88.907.88h8.06l.113-.007c.447-.054.793-.424.793-.873 0-.486-.406-.88-.907-.88zM7.933 2.42H3.4l-.114.007c-.447.054-.793.424-.793.873 0 .486.406.88.907.88h4.533l.114-.007c.447-.054.793-.424.793-.873 0-.486-.406-.88-.907-.88z"/>
</svg>
